<svg width="93" height="100" viewBox="0 0 93 100" fill="none" xmlns="http://www.w3.org/2000/svg">
<path d="M53.8568 85.9641C62.6324 81.9919 83.3327 69.7221 83.3327 42.3544V25.8205C83.3327 21.1625 83.3327 18.83 82.4253 17.0492C81.6263 15.4811 80.3482 14.2072 78.7802 13.4083C76.9976 12.5 74.6673 12.5 70.0002 12.5H30.0002C25.3331 12.5 22.9978 12.5 21.2152 13.4083C19.6472 14.2072 18.3732 15.4811 17.5743 17.0492C16.666 18.8318 16.666 21.167 16.666 25.8341V42.3543C16.666 69.7221 37.3652 81.992 46.1408 85.9642C47.0711 86.3853 47.5386 86.5954 48.5916 86.7762C49.2558 86.8902 50.7471 86.8902 51.4113 86.7762C52.4606 86.596 52.9232 86.3867 53.8472 85.9685L53.8568 85.9641Z" stroke="#1F2433" stroke-width="2" stroke-linecap="round" stroke-linejoin="round"/>
</svg>
