<svg width="100" height="100" viewBox="0 0 100 100" fill="none" xmlns="http://www.w3.org/2000/svg">
<path d="M70.8333 83.3332C70.8333 76.4297 61.5059 70.8333 50 70.8333C38.4941 70.8333 29.1667 76.4297 29.1667 83.3332M87.5 70.8348C87.5 65.709 82.3579 61.3038 75 59.3749M12.5 70.8348C12.5 65.709 17.6421 61.3038 25 59.3749M75 42.6504C77.5573 40.3615 79.1667 37.0353 79.1667 33.3333C79.1667 26.4297 73.5702 20.8333 66.6667 20.8333C63.4652 20.8333 60.5448 22.0368 58.3333 24.0161M25 42.6504C22.4427 40.3615 20.8333 37.0353 20.8333 33.3333C20.8333 26.4297 26.4298 20.8333 33.3333 20.8333C36.5348 20.8333 39.4552 22.0368 41.6667 24.0161M50 58.3333C43.0964 58.3333 37.5 52.7368 37.5 45.8333C37.5 38.9297 43.0964 33.3333 50 33.3333C56.9036 33.3333 62.5 38.9297 62.5 45.8333C62.5 52.7368 56.9036 58.3333 50 58.3333Z" stroke="#1F2433" stroke-width="2" stroke-linecap="round" stroke-linejoin="round"/>
</svg>
